<svg width="231" height="61" viewBox="0 0 231 61" fill="none" xmlns="http://www.w3.org/2000/svg">
<path d="M76.6967 23.4235C76.3953 23.7626 75.9431 24.0264 75.3402 24.2525C74.7372 24.4786 74.0966 24.5539 73.3807 24.5539C72.2879 24.5539 71.4212 24.2148 70.7806 23.5365C70.14 22.8582 69.7631 21.9538 69.7255 20.748V20.032C69.7255 19.203 69.8762 18.487 70.1777 17.8841C70.4791 17.2812 70.8936 16.7913 71.4212 16.4899C71.9487 16.1507 72.5893 16 73.3053 16C74.3604 16 75.1517 16.2261 75.717 16.716C76.2822 17.2058 76.6214 17.8841 76.7344 18.8262H74.8126C74.7372 18.374 74.5865 18.0348 74.3604 17.8464C74.1343 17.658 73.7952 17.545 73.3807 17.545C72.8908 17.545 72.4763 17.7711 72.2125 18.1856C71.9487 18.6001 71.798 19.2407 71.798 20.032V20.5219C71.798 21.3509 71.9487 21.9915 72.2125 22.406C72.514 22.8205 72.9285 23.0466 73.5691 23.0466C74.0966 23.0466 74.4735 22.9336 74.7372 22.7075V21.3886H73.343V19.9943H76.7344V23.4235H76.6967Z" fill="#8A8A8A"/>
<path d="M80.955 21.5015H79.8622V24.4408H77.865V16.1129H81.1434C82.1231 16.1129 82.9144 16.339 83.442 16.7536C84.0072 17.2057 84.271 17.8087 84.271 18.6C84.271 19.1652 84.158 19.6551 83.9319 20.0319C83.7058 20.4088 83.329 20.7102 82.8391 20.974L84.5725 24.3277V24.4031H82.4246L80.955 21.5015ZM79.8999 19.9942H81.1811C81.5579 19.9942 81.8594 19.8812 82.0478 19.6928C82.2362 19.5044 82.3492 19.2029 82.3492 18.8638C82.3492 18.5246 82.2362 18.2232 82.0478 18.0347C81.8594 17.8463 81.5579 17.7333 81.1811 17.7333H79.8999V19.9942Z" fill="#8A8A8A"/>
<path d="M92.0335 16.1506V21.6146C92.0335 22.2175 91.9204 22.7828 91.6566 23.2349C91.3929 23.6871 91.016 24.0263 90.5262 24.2524C90.0363 24.4785 89.471 24.5915 88.7927 24.5915C87.7753 24.5915 86.984 24.3277 86.3811 23.8002C85.8158 23.2726 85.5144 22.5567 85.4767 21.6523V16.1506H87.5116V21.6899C87.5492 22.5943 87.9637 23.0465 88.7927 23.0465C89.2073 23.0465 89.5087 22.9335 89.7348 22.7074C89.9609 22.4813 90.0363 22.1045 90.0363 21.5769V16.1506H92.0335Z" fill="#8A8A8A"/>
<path d="M95.312 21.6523V24.4785H93.3148V16.1506H96.6309C97.2715 16.1506 97.8367 16.2637 98.3266 16.4898C98.8165 16.7159 99.1933 17.055 99.4571 17.5072C99.7208 17.9594 99.8716 18.4492 99.8716 18.9768C99.8716 19.8058 99.5701 20.4464 99.0049 20.9363C98.4397 21.4262 97.6106 21.6523 96.6309 21.6523H95.312ZM95.312 20.1073H96.6309C97.0077 20.1073 97.3092 19.9942 97.5353 19.8058C97.7237 19.6174 97.8367 19.3536 97.8367 18.9768C97.8367 18.6 97.7237 18.2608 97.5353 18.0347C97.3469 17.8086 97.0454 17.6956 96.6686 17.6956H95.3497V20.1073H95.312Z" fill="#8A8A8A"/>
<path d="M107.973 20.4841C107.973 21.3132 107.822 22.0291 107.521 22.632C107.22 23.2727 106.805 23.7248 106.24 24.064C105.675 24.4031 105.072 24.5539 104.356 24.5539C103.64 24.5539 103.037 24.4031 102.472 24.064C101.906 23.7248 101.492 23.2727 101.19 22.6697C100.889 22.0668 100.738 21.3509 100.7 20.5972V20.145C100.7 19.316 100.851 18.6 101.153 17.9971C101.454 17.3565 101.869 16.9043 102.434 16.5652C102.999 16.226 103.64 16.0376 104.356 16.0376C105.072 16.0376 105.675 16.1883 106.24 16.5275C106.805 16.8666 107.22 17.3565 107.521 17.9594C107.822 18.5623 107.973 19.2783 107.973 20.1073V20.4841ZM105.938 20.1073C105.938 19.2783 105.788 18.6377 105.524 18.2232C105.26 17.8087 104.846 17.5826 104.356 17.5826C103.338 17.5826 102.811 18.3362 102.773 19.8436V20.4465C102.773 21.2755 102.924 21.8784 103.187 22.3306C103.451 22.7828 103.866 22.9712 104.393 22.9712C104.883 22.9712 105.298 22.7451 105.561 22.3306C105.825 21.9161 105.976 21.2755 105.976 20.4841V20.1073H105.938Z" fill="#8A8A8A"/>
<path d="M80.983 40.2676C80.9454 41.285 80.6816 42.1517 80.1917 42.9053C79.7018 43.659 79.0236 44.2619 78.1192 44.6764C77.2148 45.0909 76.1974 45.317 75.0669 45.317C73.1828 45.317 71.7131 44.7141 70.6203 43.4706C69.5276 42.2271 69 40.4937 69 38.2704V37.5921C69 36.1979 69.2261 34.9543 69.716 33.8992C70.2058 32.8441 70.9218 32.0151 71.8262 31.4499C72.7306 30.8846 73.8234 30.5832 75.0292 30.5832C76.7626 30.5832 78.1569 31.0353 79.212 31.9397C80.2671 32.8441 80.87 34.1253 81.0207 35.7457H77.5539C77.5163 34.879 77.2902 34.2384 76.8757 33.8615C76.4611 33.4847 75.8205 33.2963 74.9915 33.2963C74.1248 33.2963 73.4842 33.6354 73.1074 34.276C72.6929 34.9167 72.5045 35.9341 72.4668 37.366V38.3834C72.4668 39.9284 72.6552 41.0212 73.032 41.6618C73.4089 42.3024 74.0871 42.6416 75.0292 42.6416C75.8205 42.6416 76.4235 42.4532 76.838 42.0763C77.2525 41.6995 77.4786 41.0966 77.5162 40.3053H80.983V40.2676Z" fill="#8A8A8A"/>
<path d="M94.7747 38.2705C94.7747 39.6647 94.5109 40.9083 93.9834 42.0011C93.4558 43.0939 92.7398 43.9229 91.7601 44.4881C90.818 45.0533 89.7252 45.3548 88.4817 45.3548C87.2382 45.3548 86.1831 45.091 85.241 44.5258C84.2989 43.9606 83.5453 43.1692 83.0177 42.1141C82.4902 41.059 82.2264 39.8532 82.1887 38.5343V37.7429C82.1887 36.3487 82.4525 35.1052 82.98 34.0124C83.5076 32.9196 84.2236 32.0906 85.2033 31.5253C86.1831 30.9224 87.2759 30.6586 88.4817 30.6586C89.6875 30.6586 90.7803 30.9601 91.7224 31.5253C92.6645 32.0906 93.4181 32.9196 93.9457 34.0124C94.4732 35.0675 94.737 36.311 94.737 37.6676V38.2705H94.7747ZM91.2325 37.6676C91.2325 36.2356 91.0064 35.1428 90.5166 34.4269C90.0267 33.6732 89.3484 33.3341 88.4817 33.3341C86.7483 33.3341 85.8439 34.653 85.7309 37.253V38.3082C85.7309 39.7024 85.957 40.7952 86.4468 41.5489C86.899 42.3025 87.615 42.6793 88.5194 42.6793C89.3861 42.6793 90.0644 42.3025 90.5542 41.5489C91.0441 40.7952 91.2702 39.7401 91.2702 38.3459V37.6676H91.2325Z" fill="#8A8A8A"/>
<path d="M108.529 45.1287H105.1L100.013 36.1979V45.1287H96.5458V30.7716H100.013L105.1 39.7024V30.7716H108.567V45.1287H108.529Z" fill="#8A8A8A"/>
<path d="M118.138 41.3228C118.138 40.8329 117.95 40.4184 117.61 40.1546C117.271 39.8908 116.631 39.5894 115.726 39.2879C114.822 38.9865 114.106 38.685 113.503 38.4212C111.657 37.5169 110.715 36.2356 110.715 34.653C110.715 33.8616 110.941 33.1457 111.393 32.5427C111.845 31.9398 112.523 31.45 113.352 31.1108C114.181 30.7717 115.161 30.6209 116.216 30.6209C117.234 30.6209 118.176 30.8094 119.005 31.1862C119.834 31.563 120.474 32.0906 120.926 32.7689C121.379 33.4471 121.605 34.2385 121.605 35.1052H118.138C118.138 34.5023 117.95 34.05 117.61 33.7486C117.234 33.4094 116.781 33.2587 116.141 33.2587C115.538 33.2587 115.048 33.4094 114.671 33.6732C114.294 33.937 114.144 34.2762 114.144 34.7283C114.144 35.1052 114.332 35.4443 114.747 35.7458C115.123 36.0472 115.839 36.3487 116.819 36.6878C117.799 37.027 118.628 37.3661 119.268 37.7053C120.813 38.6096 121.605 39.8155 121.605 41.3981C121.605 42.6417 121.115 43.6214 120.173 44.3374C119.231 45.0534 117.912 45.4302 116.292 45.4302C115.123 45.4302 114.068 45.2041 113.126 44.7896C112.184 44.3751 111.468 43.8098 110.978 43.0562C110.488 42.3025 110.262 41.5112 110.262 40.5315H113.729C113.729 41.2851 113.918 41.8503 114.332 42.2272C114.747 42.604 115.387 42.7924 116.254 42.7924C116.819 42.7924 117.271 42.6794 117.61 42.4156C117.95 42.1141 118.138 41.775 118.138 41.3228Z" fill="#8A8A8A"/>
<path d="M134.643 33.4471H130.347V45.1287H126.88V33.4471H122.622V30.7716H134.605V33.4471H134.643Z" fill="#8A8A8A"/>
<path d="M141.426 40.0792H139.542V45.1287H136.075V30.7716H141.727C143.423 30.7716 144.742 31.1485 145.722 31.9021C146.664 32.6558 147.154 33.7109 147.154 35.1051C147.154 36.0849 146.965 36.9139 146.551 37.5922C146.136 38.2328 145.496 38.798 144.667 39.1748L147.681 44.9779V45.1287H143.988L141.426 40.0792ZM139.542 37.4038H141.727C142.368 37.4038 142.895 37.2153 143.197 36.8762C143.536 36.537 143.687 36.0472 143.687 35.4443C143.687 34.8413 143.536 34.3515 143.197 33.9747C142.858 33.6355 142.368 33.4471 141.727 33.4471H139.542V37.4038Z" fill="#8A8A8A"/>
<path d="M160.531 30.7716V40.1546C160.531 41.2097 160.305 42.1518 159.852 42.9054C159.4 43.6967 158.76 44.262 157.893 44.6765C157.026 45.091 156.046 45.2794 154.878 45.2794C153.145 45.2794 151.751 44.8272 150.733 43.9228C149.716 43.0185 149.226 41.775 149.188 40.1923V30.7339H152.655V40.2676C152.693 41.8503 153.409 42.6416 154.841 42.6416C155.557 42.6416 156.084 42.4532 156.461 42.0387C156.838 41.6619 157.026 41.0213 157.026 40.1169V30.7339H160.531V30.7716Z" fill="#8A8A8A"/>
<path d="M167.992 40.0792H166.108V45.1287H162.641V30.7716H168.294C169.989 30.7716 171.308 31.1485 172.288 31.9021C173.23 32.6558 173.72 33.7109 173.72 35.1051C173.72 36.0849 173.532 36.9139 173.117 37.5922C172.703 38.2328 172.062 38.798 171.233 39.1748L174.248 44.9779V45.1287H170.555L167.992 40.0792ZM166.146 37.4038H168.331C168.972 37.4038 169.5 37.2153 169.801 36.8762C170.14 36.537 170.291 36.0472 170.291 35.4443C170.291 34.8413 170.14 34.3515 169.801 33.9747C169.462 33.6355 168.972 33.4471 168.331 33.4471H166.146V37.4038Z" fill="#8A8A8A"/>
<path d="M184.007 42.4532H179.259L178.43 45.1287H174.737L180.012 30.7716H183.253L188.566 45.1287H184.836L184.007 42.4532ZM180.088 39.7778H183.178L181.633 34.8037L180.088 39.7778Z" fill="#8A8A8A"/>
<path d="M194.144 30.7716L197.347 40.7575L200.55 30.7716H205.109V45.1287H201.643V41.7749L201.982 34.9167L198.515 45.1287H196.216L192.749 34.9167L193.089 41.7749V45.1287H189.622V30.7716H194.144Z" fill="#8A8A8A"/>
<path d="M216.188 39.0618H210.762V42.4909H217.206V45.1663H207.333V30.8093H217.206V33.4847H210.762V36.4994H216.188V39.0618Z" fill="#8A8A8A"/>
<path d="M223.95 35.5573L226.287 30.7716H230.243L226.249 37.8936L230.357 45.1287H226.362L223.95 40.2676L221.539 45.1287H217.544L221.652 37.8936L217.657 30.7716H221.614L223.95 35.5573Z" fill="#8A8A8A"/>
<path d="M23.2098 56.649C23.6819 56.649 24.154 56.649 24.6388 56.6362C26.489 56.6235 28.3391 56.5342 30.1893 56.5086L32.5753 55.5772L32.4988 21.9338L32.5753 21.9721V0L19.0118 7.19644V36.365H23.197V56.649H23.2098Z" fill="#E4B363"/>
<path d="M31.7842 56.3018C32.0394 56.1614 32.2946 56.0594 32.5498 56.0721V17.9049L32.486 17.8666H26.91V56.3911C28.5305 56.3528 30.1637 56.3018 31.7842 56.3018Z" fill="#CCCCCC"/>
<path d="M36.0715 56.5926C37.2709 56.6947 38.483 56.8223 39.6824 56.8095V21.6945L32.5498 17.9048V56.4395C33.7365 56.465 34.9103 56.4905 36.0715 56.5926Z" fill="#8A8A8A"/>
<path d="M20.7727 56.4018C22.0614 56.2486 23.3374 56.2742 24.6261 56.2614C24.6388 56.2614 24.6516 56.2614 24.6644 56.2614V31.3673H19.0118V56.6187C19.5988 56.5421 20.1857 56.4783 20.7727 56.4018Z" fill="#8A8A8A"/>
<path d="M13.3722 57.1673C14.5843 57.027 15.8093 56.9887 17.0214 56.8611C17.6849 56.7846 18.3484 56.708 19.0247 56.6187V31.3673L8.53625 36.9305V57.9457C9.35287 57.8946 10.1695 57.8181 10.9861 57.7288C11.7644 57.4863 12.5428 57.2567 13.3722 57.1673Z" fill="#CCCCCC"/>
<path d="M15.6177 36.1522V38.3979L11.9302 40.3501V38.1044L15.6177 36.1522Z" fill="#8A8A8A"/>
<path d="M15.6177 45.1223V47.3552L11.9302 49.3202V47.0745L15.6177 45.1223Z" fill="#8A8A8A"/>
<path d="M15.6177 49.6009V51.8466L11.9302 53.7988V51.5531L15.6177 49.6009Z" fill="#8A8A8A"/>
<path d="M15.6177 40.6309V42.8766L11.9302 44.8288V42.5958L15.6177 40.6309Z" fill="#8A8A8A"/>
<path d="M38.2024 43.2976C38.2024 44.3694 37.3986 45.2371 36.365 45.3519V56.2997C36.2119 56.2869 36.046 56.2742 35.8929 56.2614V45.3519C34.8594 45.2371 34.0555 44.3567 34.0555 43.2976C34.0555 42.1493 34.987 41.2306 36.1226 41.2306C37.2582 41.2306 38.2024 42.1493 38.2024 43.2976Z" fill="#E4B363"/>
<path d="M46.3048 39.6611C46.3048 40.9498 45.3223 42.0089 44.0591 42.1365V57.4991C43.906 57.4736 43.7401 57.448 43.587 57.4225V42.1237C42.3238 42.0089 41.3413 40.9498 41.3413 39.6483C41.3413 38.2831 42.4514 37.173 43.8294 37.173C45.1947 37.173 46.3048 38.2831 46.3048 39.6611Z" fill="#E4B363"/>
<path d="M54.8665 60.5997C53.7181 60.3317 52.5697 60.051 51.4341 59.7958C50.2985 59.5407 49.1502 59.2982 48.0145 59.0813C46.7003 58.8261 45.3861 58.5964 44.0718 58.3795C43.9187 58.354 43.7528 58.3285 43.5997 58.303C43.2297 58.2519 42.8596 58.1881 42.4896 58.1371C42.043 58.0733 41.6092 58.0095 41.1754 57.9585C40.6905 57.8947 40.2056 57.8309 39.7208 57.7798C38.6107 57.6522 37.5006 57.5374 36.3905 57.4353C36.2374 57.4226 36.0715 57.4098 35.9184 57.397C34.8083 57.3077 33.6982 57.2312 32.5881 57.1801C31.6694 57.1291 30.7507 57.1036 29.832 57.078C29.7683 57.078 29.7172 57.078 29.6534 57.078C29.5513 57.078 29.4493 57.078 29.3599 57.0653C29.0282 57.0653 28.7092 57.0525 28.3775 57.0525C28.0585 57.0525 27.7522 57.0525 27.4332 57.0525C27.1525 57.0525 26.8846 57.0525 26.6039 57.0525C26.2593 57.0525 25.9148 57.0653 25.5703 57.0653C25.2769 57.0653 24.9834 57.078 24.6772 57.0908C24.2561 57.1036 23.8223 57.1163 23.4012 57.1291C23.3374 57.1291 23.2864 57.1291 23.2226 57.1418C21.8318 57.1929 20.4282 57.2822 19.0374 57.397C17.8763 57.4864 16.7024 57.6012 15.5412 57.7415C15.0691 57.7926 14.597 57.8564 14.1122 57.9202C13.9718 57.9329 13.8315 57.9585 13.6911 57.9712C13.2573 58.0223 12.8107 58.0861 12.3769 58.1498C12.3513 58.1498 12.3258 58.1626 12.3131 58.1626C10.4884 58.4306 8.6638 58.7368 6.85193 59.0941C5.70356 59.311 4.56795 59.5534 3.43234 59.8086C2.29674 60.0638 1.14837 60.3317 0 60.6125C1.07181 60.1276 2.16914 59.681 3.26647 59.2727C4.37656 58.8644 5.48665 58.4816 6.60949 58.1371C7.26024 57.9329 7.89822 57.7415 8.54896 57.5629C9.81217 57.2056 11.0881 56.8994 12.3769 56.6187C12.7341 56.5421 13.0786 56.4656 13.4359 56.4018C14.1377 56.2614 14.8395 56.1338 15.5412 56.019C16.7024 55.8276 17.8635 55.6617 19.0374 55.5214C20.4282 55.3555 21.8318 55.2406 23.2226 55.1513C23.2864 55.1513 23.3374 55.1513 23.4012 55.1386C23.8223 55.1131 24.2561 55.0875 24.6772 55.0748C24.9706 55.062 25.2641 55.0493 25.5703 55.0493C25.9148 55.0365 26.2593 55.0365 26.6039 55.0365C26.8846 55.0365 27.1525 55.0365 27.4332 55.0365C27.7522 55.0365 28.0585 55.0365 28.3775 55.0365C28.7092 55.0365 29.0282 55.0493 29.3599 55.062C29.462 55.062 29.5641 55.062 29.6534 55.0748C29.7172 55.0748 29.7683 55.0748 29.832 55.0875C30.7507 55.1131 31.6694 55.1641 32.5881 55.2279C33.6982 55.3045 34.8083 55.4193 35.9184 55.5469C36.0715 55.5596 36.2374 55.5852 36.3905 55.5979C37.5006 55.7383 38.6107 55.9042 39.7208 56.0955C40.295 56.1976 40.8691 56.2997 41.4433 56.4145C41.8006 56.4911 42.1451 56.5549 42.5024 56.6315C42.8724 56.708 43.2424 56.7973 43.6125 56.8866C43.7656 56.9249 43.9315 56.9632 44.0846 57.0015C45.4881 57.3332 46.8917 57.716 48.2697 58.1498C49.3926 58.4944 50.5027 58.8772 51.6128 59.2855C52.6973 59.6682 53.7819 60.1148 54.8665 60.5997Z" fill="#E4B363"/>
<path d="M24.6651 8.87094H21.2583V11.1166H24.6651V8.87094Z" fill="#FFE0AD"/>
<path d="M30.3041 8.87082H26.91V11.1165H30.3041V8.87082Z" fill="#FFE0AD"/>
<path d="M24.6643 17.8664H21.2574V20.1121H24.6643V17.8664Z" fill="#FFE0AD"/>
<path d="M24.6643 26.8619H21.2574V29.1076H24.6643V26.8619Z" fill="#FFE0AD"/>
<path d="M24.6643 22.3705H21.2574V24.6162H24.6643V22.3705Z" fill="#FFE0AD"/>
<path d="M24.6643 13.375H21.2574V15.6207H24.6643V13.375Z" fill="#FFE0AD"/>
<path d="M30.3041 13.375H26.91V15.6207H30.3041V13.375Z" fill="#FFE0AD"/>
</svg>
