<svg viewBox="0 0 1512 658" fill="none" xmlns="http://www.w3.org/2000/svg">
<path fill-rule="evenodd" clip-rule="evenodd" d="M0 0H1512V657.859C1477.87 645.392 1443.73 633.698 1409.2 623.151C1366 609.614 1322 597.669 1278 587.318C1275.6 586.721 1273.1 586.123 1270.6 585.525C1268.1 584.928 1265.6 584.33 1263.2 583.733L1263.13 583.717C1251.55 580.935 1239.98 578.155 1228.4 575.772C1222.8 574.577 1217.3 573.482 1211.8 572.387C1206.3 571.291 1200.8 570.196 1195.2 569.001C1177.2 565.418 1159.2 562.232 1141.2 559.046C1106.4 553.077 1071.6 547.9 1036.8 543.519C1034.4 543.32 1031.9 543.022 1029.4 542.723C1026.9 542.424 1024.4 542.125 1022 541.927C987.199 537.945 952.399 534.363 917.598 531.973C888.798 529.982 859.998 528.39 831.198 527.592C829.201 527.195 827.599 527.195 825.599 527.195C822.8 526.796 819.599 526.796 816.398 526.796L815.08 526.745C805.153 526.366 795.559 526 785.601 526H755.998H730.001C719.198 526 708.398 526 697.599 526.4C688 526.4 678.799 526.796 669.601 527.195C656.4 527.591 642.801 528.39 629.6 529.186C627.6 529.582 626.001 529.582 624.001 529.582C580.401 532.369 536.4 535.954 492.8 541.131C456 545.51 419.6 550.686 383.198 556.659C361.201 560.241 339.2 564.223 317.2 568.604C307.63 570.305 298.353 572.295 288.871 574.33C287.255 574.677 285.632 575.025 284.001 575.373C243.599 584.132 203.6 593.687 164 604.837C143.6 610.41 123.6 616.383 103.2 622.755C68.5394 633.34 34.2668 645.084 0 657.606V0Z" fill="black"/>
</svg>
