<svg viewBox="0 0 1512 1270" fill="none" xmlns="http://www.w3.org/2000/svg">
<path fill-rule="evenodd" clip-rule="evenodd" d="M0 0.5C590.473 0.5 921.527 0.5 1512 0.5V1227.86C1477.87 1215.39 1443.73 1203.7 1409.2 1193.15C1366 1179.61 1322 1167.67 1278 1157.32C1275.6 1156.72 1273.1 1156.12 1270.6 1155.53C1268.1 1154.93 1265.6 1154.33 1263.2 1153.73L1263.13 1153.72C1251.55 1150.94 1239.98 1148.15 1228.4 1145.77C1222.8 1144.58 1217.3 1143.48 1211.8 1142.39C1206.3 1141.29 1200.8 1140.2 1195.2 1139C1177.2 1135.42 1159.2 1132.23 1141.2 1129.05C1106.4 1123.08 1071.6 1117.9 1036.8 1113.52C1034.4 1113.32 1031.9 1113.02 1029.4 1112.72C1026.9 1112.42 1024.4 1112.13 1022 1111.93C987.199 1107.95 952.399 1104.36 917.598 1101.97C888.798 1099.98 859.998 1098.39 831.198 1097.59C829.201 1097.2 827.599 1097.2 825.599 1097.2C822.8 1096.8 819.599 1096.8 816.398 1096.8L815.08 1096.75C805.153 1096.37 795.559 1096 785.601 1096H755.998H730.001C719.198 1096 708.398 1096 697.599 1096.4C688 1096.4 678.799 1096.8 669.601 1097.2C656.4 1097.59 642.801 1098.39 629.6 1099.19C627.6 1099.58 626.001 1099.58 624.001 1099.58C580.401 1102.37 536.4 1105.95 492.8 1111.13C456 1115.51 419.6 1120.69 383.198 1126.66C361.201 1130.24 339.2 1134.22 317.2 1138.6C307.63 1140.31 298.353 1142.3 288.871 1144.33C287.255 1144.68 285.632 1145.02 284.001 1145.37C243.599 1154.13 203.6 1163.69 164 1174.84C143.6 1180.41 123.6 1186.38 103.2 1192.75C68.5394 1203.34 34.2668 1215.08 0 1227.61V0.5Z" fill="black"/>
</svg>
